<?xml version="1.0" encoding="UTF-8" standalone="no"?>
<svg
   id="svg2"
   viewBox="0 0 340.15749 359.05512"
   version="1.0"
   sodipodi:docname="liftarn_Cat_silhouette.svg"
   width="90mm"
   height="95mm"
   inkscape:version="1.1 (c68e22c387, 2021-05-23)"
   xmlns:inkscape="http://www.inkscape.org/namespaces/inkscape"
   xmlns:sodipodi="http://sodipodi.sourceforge.net/DTD/sodipodi-0.dtd"
   xmlns:xlink="http://www.w3.org/1999/xlink"
   xmlns="http://www.w3.org/2000/svg"
   xmlns:svg="http://www.w3.org/2000/svg"
   xmlns:rdf="http://www.w3.org/1999/02/22-rdf-syntax-ns#"
   xmlns:cc="http://creativecommons.org/ns#"
   xmlns:dc="http://purl.org/dc/elements/1.1/">
  <defs
     id="defs8">
    <linearGradient
       inkscape:collect="always"
       id="linearGradient889">
      <stop
         style="stop-color:#000038;stop-opacity:1"
         offset="0"
         id="stop885" />
      <stop
         style="stop-color:#415459;stop-opacity:1"
         offset="1"
         id="stop887" />
    </linearGradient>
    <linearGradient
       inkscape:collect="always"
       xlink:href="#linearGradient889"
       id="linearGradient891"
       x1="170.03693"
       y1="248.78009"
       x2="357.68683"
       y2="16.237873"
       gradientUnits="userSpaceOnUse"
       gradientTransform="translate(-29.922356,-10.470125)" />
  </defs>
  <sodipodi:namedview
     id="namedview6"
     pagecolor="#ffffff"
     bordercolor="#666666"
     borderopacity="1.0"
     inkscape:pageshadow="2"
     inkscape:pageopacity="0.0"
     inkscape:pagecheckerboard="0"
     showgrid="false"
     units="mm"
     inkscape:zoom="1.5500525"
     inkscape:cx="84.835836"
     inkscape:cy="225.7988"
     inkscape:window-width="1920"
     inkscape:window-height="1011"
     inkscape:window-x="1920"
     inkscape:window-y="32"
     inkscape:window-maximized="1"
     inkscape:current-layer="svg2"
     inkscape:document-units="mm" />
  <path
     id="path1891"
     fill-rule="evenodd"
     d="m 121.42764,296.72988 h 113 c 0,-16.06 -1.15,-19.25 -27.75,-19.25 4.25,-12.75 21.52,-43.59 31.12,-43.59 8.5,0 18.63,0.47 18.63,19.84 0,22 37.02,57.48 46,43 13.38,-21.56 -23,-14.98 -23,-67 0,-71.15 41.52,-61.02 41.52,-101 0,-20 -5.52,-22.7 -5.52,-37.000005 0,-18.893 16.65,-17.796 13.41,-33.465 -2.24,-10.823 -3.99,-19.503 -5.29,-32.591 -0.93,-9.287 -1.23,-19.1850002 -10.87,-18.7870002 -11.33,0.468 -15.63,20.4170002 -33.25,21.8480002 -17.58,1.427 -32.57,-14.967 -39.38,-12.625 -6.74,2.321 -4.62,20.625 -0.62,33.625 6.29,20.432 20,46.995004 -5,50.995005 -25,4 -68,8 -99,49 -31,41 -29.86,89.12 -41.999997,104 -40.758999,49.96 -82.525999,29.45 -82.525999,71 0,18.61 31.525,32 36.525,26 5,-6 -42.4850004,-23.87 10.646,-45 45.394996,-18.04 49.444996,-21.72 63.354996,-9 z"
     style="fill:url(#linearGradient891);fill-opacity:1" />
  <metadata
     id="metadata3">
    <rdf:RDF>
      <cc:Work>
        <dc:format>image/svg+xml</dc:format>
        <dc:type
           rdf:resource="http://purl.org/dc/dcmitype/StillImage" />
        <cc:license
           rdf:resource="http://creativecommons.org/publicdomain/zero/1.0/" />
        <dc:publisher>
          <cc:Agent
             rdf:about="http://openclipart.org/">
            <dc:title>Openclipart</dc:title>
          </cc:Agent>
        </dc:publisher>
        <dc:title>Cat silhouette</dc:title>
        <dc:date>2006-11-03T05:40:34</dc:date>
        <dc:description>Silhouette of a cat.\n\nFrom http://commons.wikimedia.org/wiki/Image:Cat_silhouette.svg</dc:description>
        <dc:source>http://openclipart.org/detail/1198/cat-silhouette-by-liftarn</dc:source>
        <dc:creator>
          <cc:Agent>
            <dc:title>liftarn</dc:title>
          </cc:Agent>
        </dc:creator>
        <dc:subject>
          <rdf:Bag>
            <rdf:li>animal</rdf:li>
            <rdf:li>cat</rdf:li>
            <rdf:li>clip art</rdf:li>
            <rdf:li>clipart</rdf:li>
            <rdf:li>externalsource</rdf:li>
            <rdf:li>image</rdf:li>
            <rdf:li>media</rdf:li>
            <rdf:li>png</rdf:li>
            <rdf:li>public domain</rdf:li>
            <rdf:li>silhouette</rdf:li>
            <rdf:li>svg</rdf:li>
            <rdf:li>wikimedia commons</rdf:li>
          </rdf:Bag>
        </dc:subject>
      </cc:Work>
      <cc:License
         rdf:about="http://creativecommons.org/publicdomain/zero/1.0/">
        <cc:permits
           rdf:resource="http://creativecommons.org/ns#Reproduction" />
        <cc:permits
           rdf:resource="http://creativecommons.org/ns#Distribution" />
        <cc:permits
           rdf:resource="http://creativecommons.org/ns#DerivativeWorks" />
      </cc:License>
    </rdf:RDF>
  </metadata>
</svg>
